<mxfile host="65bd71144e">
    <diagram id="x5eV6ivKpVrquAcP7XDE" name="Page-1">
        <mxGraphModel dx="861" dy="285" grid="1" gridSize="10" guides="1" tooltips="1" connect="1" arrows="1" fold="1" page="1" pageScale="1" pageWidth="850" pageHeight="1100" math="0" shadow="0">
            <root>
                <mxCell id="0"/>
                <mxCell id="1" parent="0"/>
                <mxCell id="2" value="" style="whiteSpace=wrap;html=1;aspect=fixed;" vertex="1" parent="1">
                    <mxGeometry x="210" y="80" width="2706" height="2706" as="geometry"/>
                </mxCell>
                <mxCell id="3" value="Etudiante" style="shape=umlActor;verticalLabelPosition=bottom;verticalAlign=top;html=1;outlineConnect=0;fillColor=#f8cecc;strokeColor=#b85450;" vertex="1" parent="1">
                    <mxGeometry x="100" y="2132" width="80" height="110" as="geometry"/>
                </mxCell>
                <mxCell id="4" value="Administration" style="shape=umlActor;verticalLabelPosition=bottom;verticalAlign=top;html=1;outlineConnect=0;fillColor=#f8cecc;strokeColor=#b85450;" vertex="1" parent="1">
                    <mxGeometry x="97" y="889" width="80" height="110" as="geometry"/>
                </mxCell>
                <mxCell id="5" value="Professeur" style="shape=umlActor;verticalLabelPosition=bottom;verticalAlign=top;html=1;outlineConnect=0;fillColor=#f8cecc;strokeColor=#b85450;" vertex="1" parent="1">
                    <mxGeometry x="112" y="1838" width="80" height="110" as="geometry"/>
                </mxCell>
                <mxCell id="6" value="Camerman" style="shape=umlActor;verticalLabelPosition=bottom;verticalAlign=top;html=1;outlineConnect=0;fillColor=#f8cecc;strokeColor=#b85450;" vertex="1" parent="1">
                    <mxGeometry x="75" y="191" width="80" height="110" as="geometry"/>
                </mxCell>
                <mxCell id="7" value="Uploader des format" style="ellipse;whiteSpace=wrap;html=1;fillColor=#e1d5e7;strokeColor=#9673a6;" vertex="1" parent="1">
                    <mxGeometry x="390" y="195" width="140" height="40" as="geometry"/>
                </mxCell>
                <mxCell id="8" value="Télécharger images" style="ellipse;whiteSpace=wrap;html=1;fillColor=#e1d5e7;strokeColor=#9673a6;" vertex="1" parent="1">
                    <mxGeometry x="690" y="170" width="140" height="40" as="geometry"/>
                </mxCell>
                <mxCell id="9" value="Télécharger vidéos" style="ellipse;whiteSpace=wrap;html=1;fillColor=#e1d5e7;strokeColor=#9673a6;" vertex="1" parent="1">
                    <mxGeometry x="690" y="235" width="140" height="40" as="geometry"/>
                </mxCell>
                <mxCell id="10" value="" style="endArrow=block;endSize=16;endFill=0;html=1;rounded=0;entryX=1;entryY=0;entryDx=0;entryDy=0;" edge="1" parent="1" target="7">
                    <mxGeometry width="160" relative="1" as="geometry">
                        <mxPoint x="690" y="189.12" as="sourcePoint"/>
                        <mxPoint x="610.1" y="210" as="targetPoint"/>
                    </mxGeometry>
                </mxCell>
                <mxCell id="11" value="" style="endArrow=block;endSize=16;endFill=0;html=1;rounded=0;" edge="1" parent="1" source="9" target="7">
                    <mxGeometry width="160" relative="1" as="geometry">
                        <mxPoint x="700" y="199.12" as="sourcePoint"/>
                        <mxPoint x="620" y="230" as="targetPoint"/>
                    </mxGeometry>
                </mxCell>
                <mxCell id="12" value="&amp;lt;&amp;lt;include&amp;gt;&amp;gt;" style="endArrow=open;endSize=12;dashed=1;html=1;rounded=0;exitX=0.98;exitY=0.698;exitDx=0;exitDy=0;exitPerimeter=0;entryX=0.253;entryY=0.062;entryDx=0;entryDy=0;entryPerimeter=0;" edge="1" parent="1" source="9" target="13">
                    <mxGeometry x="-0.5377" y="-11" width="160" relative="1" as="geometry">
                        <mxPoint x="820" y="260" as="sourcePoint"/>
                        <mxPoint x="980" y="260" as="targetPoint"/>
                        <mxPoint as="offset"/>
                    </mxGeometry>
                </mxCell>
                <mxCell id="13" value="Ajouter une image miniature" style="ellipse;whiteSpace=wrap;html=1;fillColor=#e1d5e7;strokeColor=#9673a6;" vertex="1" parent="1">
                    <mxGeometry x="870" y="299" width="188" height="31" as="geometry"/>
                </mxCell>
                <mxCell id="14" value="&amp;lt;&amp;lt;secondaire&amp;gt;&amp;gt;&lt;div&gt;Systeme&lt;/div&gt;" style="rounded=0;whiteSpace=wrap;html=1;fillColor=#dae8fc;strokeColor=#6c8ebf;" vertex="1" parent="1">
                    <mxGeometry x="2948" y="466" width="266" height="137" as="geometry"/>
                </mxCell>
                <mxCell id="15" value="" style="endArrow=none;html=1;rounded=0;entryX=0.023;entryY=0.393;entryDx=0;entryDy=0;entryPerimeter=0;exitX=0.704;exitY=0.117;exitDx=0;exitDy=0;exitPerimeter=0;" edge="1" parent="1" source="16" target="14">
                    <mxGeometry width="50" height="50" relative="1" as="geometry">
                        <mxPoint x="2461" y="531" as="sourcePoint"/>
                        <mxPoint x="2151" y="491" as="targetPoint"/>
                    </mxGeometry>
                </mxCell>
                <mxCell id="16" value="Envoie Email" style="ellipse;whiteSpace=wrap;html=1;fillColor=#e1d5e7;strokeColor=#9673a6;" vertex="1" parent="1">
                    <mxGeometry x="2475" y="158" width="176" height="60" as="geometry"/>
                </mxCell>
                <mxCell id="17" value="Générer un matricule" style="ellipse;whiteSpace=wrap;html=1;fillColor=#e1d5e7;strokeColor=#9673a6;" vertex="1" parent="1">
                    <mxGeometry x="2538" y="345" width="140" height="40" as="geometry"/>
                </mxCell>
                <mxCell id="18" value="" style="endArrow=none;html=1;rounded=0;entryX=0.008;entryY=0.605;entryDx=0;entryDy=0;entryPerimeter=0;" edge="1" parent="1" source="17" target="14">
                    <mxGeometry width="50" height="50" relative="1" as="geometry">
                        <mxPoint x="2781" y="367" as="sourcePoint"/>
                        <mxPoint x="3024" y="361" as="targetPoint"/>
                    </mxGeometry>
                </mxCell>
                <mxCell id="19" value="Ajouter une date d&#39;événement" style="ellipse;whiteSpace=wrap;html=1;fillColor=#e1d5e7;strokeColor=#9673a6;" vertex="1" parent="1">
                    <mxGeometry x="928" y="139" width="166" height="40" as="geometry"/>
                </mxCell>
                <mxCell id="20" value="Envoyer le format à l&#39;administration" style="ellipse;whiteSpace=wrap;html=1;fillColor=#e1d5e7;strokeColor=#9673a6;" vertex="1" parent="1">
                    <mxGeometry x="450" y="301" width="225" height="29" as="geometry"/>
                </mxCell>
                <mxCell id="21" value="&amp;lt;&amp;lt;include&amp;gt;&amp;gt;" style="endArrow=open;endSize=12;dashed=1;html=1;rounded=0;exitX=1;exitY=0.5;exitDx=0;exitDy=0;entryX=0;entryY=0.5;entryDx=0;entryDy=0;" edge="1" parent="1" source="8" target="19">
                    <mxGeometry x="-0.4264" y="16" width="160" relative="1" as="geometry">
                        <mxPoint x="840" y="175" as="sourcePoint"/>
                        <mxPoint x="914" y="205" as="targetPoint"/>
                        <mxPoint as="offset"/>
                    </mxGeometry>
                </mxCell>
                <mxCell id="22" value="Envoyez les vidéos à l&#39;administration pour poursuivre le processus d&#39;envoi" style="shape=note;whiteSpace=wrap;html=1;backgroundOutline=1;darkOpacity=0.05;fillColor=#ffe6cc;strokeColor=#d79b00;" vertex="1" parent="1">
                    <mxGeometry x="472" y="361" width="274" height="58" as="geometry"/>
                </mxCell>
                <mxCell id="23" value="&amp;lt;&amp;lt;include&amp;gt;&amp;gt;" style="endArrow=open;endSize=12;dashed=1;html=1;rounded=0;entryX=0.069;entryY=0.756;entryDx=0;entryDy=0;entryPerimeter=0;" edge="1" parent="1" source="9" target="19">
                    <mxGeometry x="-0.3104" y="-7" width="160" relative="1" as="geometry">
                        <mxPoint x="840" y="200" as="sourcePoint"/>
                        <mxPoint x="920" y="170" as="targetPoint"/>
                        <mxPoint x="-1" as="offset"/>
                    </mxGeometry>
                </mxCell>
                <mxCell id="24" value="S&#39;authentifier" style="ellipse;whiteSpace=wrap;html=1;fillColor=#f8cecc;strokeColor=#b85450;" vertex="1" parent="1">
                    <mxGeometry x="1133" y="385" width="140" height="40" as="geometry"/>
                </mxCell>
                <mxCell id="25" value="&amp;lt;&amp;lt;include&amp;gt;&amp;gt;" style="endArrow=open;endSize=12;dashed=1;html=1;rounded=0;exitX=0.717;exitY=0.919;exitDx=0;exitDy=0;exitPerimeter=0;" edge="1" parent="1" source="7" target="24">
                    <mxGeometry x="-0.3104" y="-7" width="160" relative="1" as="geometry">
                        <mxPoint x="803" y="247" as="sourcePoint"/>
                        <mxPoint x="930" y="180" as="targetPoint"/>
                        <mxPoint x="-1" as="offset"/>
                        <Array as="points">
                            <mxPoint x="828" y="310"/>
                        </Array>
                    </mxGeometry>
                </mxCell>
                <mxCell id="26" value="&amp;lt;&amp;lt;include&amp;gt;&amp;gt;" style="endArrow=open;endSize=12;dashed=1;html=1;rounded=0;exitX=0.933;exitY=0.709;exitDx=0;exitDy=0;exitPerimeter=0;" edge="1" parent="1" source="20">
                    <mxGeometry x="-0.1152" y="10" width="160" relative="1" as="geometry">
                        <mxPoint x="607" y="255" as="sourcePoint"/>
                        <mxPoint x="1130" y="420" as="targetPoint"/>
                        <mxPoint as="offset"/>
                    </mxGeometry>
                </mxCell>
                <mxCell id="27" value="Visualiser un message urgent" style="ellipse;whiteSpace=wrap;html=1;fillColor=#e1d5e7;strokeColor=#9673a6;" vertex="1" parent="1">
                    <mxGeometry x="454" y="441" width="148" height="37" as="geometry"/>
                </mxCell>
                <mxCell id="28" value="Valider Message par [OK]" style="ellipse;whiteSpace=wrap;html=1;fillColor=#e1d5e7;strokeColor=#9673a6;" vertex="1" parent="1">
                    <mxGeometry x="670" y="466" width="150" height="34" as="geometry"/>
                </mxCell>
                <mxCell id="29" value="Répondre à un message" style="ellipse;whiteSpace=wrap;html=1;fillColor=#e1d5e7;strokeColor=#9673a6;" vertex="1" parent="1">
                    <mxGeometry x="669" y="521" width="161" height="29" as="geometry"/>
                </mxCell>
                <mxCell id="30" value="&amp;lt;&amp;lt;extend&amp;gt;&amp;gt;" style="endArrow=open;endSize=12;dashed=1;html=1;rounded=0;exitX=0;exitY=0.5;exitDx=0;exitDy=0;entryX=1;entryY=0.5;entryDx=0;entryDy=0;" edge="1" parent="1" source="28" target="27">
                    <mxGeometry x="0.0902" y="7" width="160" relative="1" as="geometry">
                        <mxPoint x="655" y="500" as="sourcePoint"/>
                        <mxPoint x="735" y="470" as="targetPoint"/>
                        <mxPoint as="offset"/>
                    </mxGeometry>
                </mxCell>
                <mxCell id="31" value="&amp;lt;&amp;lt;extend&amp;gt;&amp;gt;" style="endArrow=open;endSize=12;dashed=1;html=1;rounded=0;entryX=0.668;entryY=0.969;entryDx=0;entryDy=0;entryPerimeter=0;exitX=0.042;exitY=0.405;exitDx=0;exitDy=0;exitPerimeter=0;" edge="1" parent="1" source="29" target="27">
                    <mxGeometry x="0.1457" y="6" width="160" relative="1" as="geometry">
                        <mxPoint x="719.0620285438046" y="525.927777589052" as="sourcePoint"/>
                        <mxPoint x="530" y="479.9999999999999" as="targetPoint"/>
                        <mxPoint as="offset"/>
                    </mxGeometry>
                </mxCell>
                <mxCell id="32" value="Visualiser les événements uploadés" style="ellipse;whiteSpace=wrap;html=1;fillColor=#e1d5e7;strokeColor=#9673a6;" vertex="1" parent="1">
                    <mxGeometry x="422" y="579" width="218" height="31" as="geometry"/>
                </mxCell>
                <mxCell id="33" value="Modifier&amp;nbsp; événements" style="ellipse;whiteSpace=wrap;html=1;fillColor=#e1d5e7;strokeColor=#9673a6;" vertex="1" parent="1">
                    <mxGeometry x="712" y="604" width="156" height="24" as="geometry"/>
                </mxCell>
                <mxCell id="34" value="Delete&amp;nbsp; événements" style="ellipse;whiteSpace=wrap;html=1;fillColor=#e1d5e7;strokeColor=#9673a6;" vertex="1" parent="1">
                    <mxGeometry x="693" y="647" width="138" height="23" as="geometry"/>
                </mxCell>
                <mxCell id="35" value="&amp;lt;&amp;lt;include&amp;gt;&amp;gt;" style="endArrow=open;endSize=12;dashed=1;html=1;rounded=0;exitX=1;exitY=0;exitDx=0;exitDy=0;entryX=0;entryY=0.5;entryDx=0;entryDy=0;" edge="1" parent="1" source="27" target="24">
                    <mxGeometry x="0.0114" y="6" width="160" relative="1" as="geometry">
                        <mxPoint x="568" y="304" as="sourcePoint"/>
                        <mxPoint x="1140" y="430" as="targetPoint"/>
                        <mxPoint as="offset"/>
                        <Array as="points">
                            <mxPoint x="860" y="450"/>
                        </Array>
                    </mxGeometry>
                </mxCell>
                <mxCell id="36" value="&amp;lt;&amp;lt;include&amp;gt;&amp;gt;" style="endArrow=open;endSize=12;dashed=1;html=1;rounded=0;exitX=1;exitY=0;exitDx=0;exitDy=0;entryX=0;entryY=1;entryDx=0;entryDy=0;" edge="1" parent="1" source="32" target="24">
                    <mxGeometry x="-0.0873" y="-10" width="160" relative="1" as="geometry">
                        <mxPoint x="579" y="456" as="sourcePoint"/>
                        <mxPoint x="1150" y="440" as="targetPoint"/>
                        <mxPoint as="offset"/>
                        <Array as="points">
                            <mxPoint x="910" y="540"/>
                        </Array>
                    </mxGeometry>
                </mxCell>
                <mxCell id="37" value="Rechercher un événement par son nom" style="ellipse;whiteSpace=wrap;html=1;fillColor=#e1d5e7;strokeColor=#9673a6;" vertex="1" parent="1">
                    <mxGeometry x="440" y="678" width="239" height="32" as="geometry"/>
                </mxCell>
                <mxCell id="38" value="&amp;lt;&amp;lt;include&amp;gt;&amp;gt;" style="endArrow=open;endSize=12;dashed=1;html=1;rounded=0;exitX=1;exitY=0.5;exitDx=0;exitDy=0;" edge="1" parent="1" source="37" target="24">
                    <mxGeometry x="-0.1085" y="11" width="160" relative="1" as="geometry">
                        <mxPoint x="559" y="606" as="sourcePoint"/>
                        <mxPoint x="1151" y="454" as="targetPoint"/>
                        <mxPoint as="offset"/>
                        <Array as="points">
                            <mxPoint x="800" y="700"/>
                            <mxPoint x="1140" y="520"/>
                        </Array>
                    </mxGeometry>
                </mxCell>
                <mxCell id="39" value="Créer un compte pour les cameramen" style="ellipse;whiteSpace=wrap;html=1;fillColor=#e1d5e7;strokeColor=#9673a6;" vertex="1" parent="1">
                    <mxGeometry x="480" y="846" width="214" height="34" as="geometry"/>
                </mxCell>
                <mxCell id="40" value="Modiffier" style="ellipse;whiteSpace=wrap;html=1;fillColor=#e1d5e7;strokeColor=#9673a6;" vertex="1" parent="1">
                    <mxGeometry x="762" y="799" width="100" height="29" as="geometry"/>
                </mxCell>
                <mxCell id="41" value="Supprimer" style="ellipse;whiteSpace=wrap;html=1;fillColor=#e1d5e7;strokeColor=#9673a6;" vertex="1" parent="1">
                    <mxGeometry x="770" y="840" width="94" height="27" as="geometry"/>
                </mxCell>
                <mxCell id="42" value="&amp;lt;&amp;lt;extend&amp;gt;&amp;gt;" style="endArrow=open;endSize=12;dashed=1;html=1;rounded=0;exitX=0;exitY=0.5;exitDx=0;exitDy=0;entryX=0.941;entryY=0.242;entryDx=0;entryDy=0;entryPerimeter=0;" edge="1" parent="1" source="40" target="39">
                    <mxGeometry x="0.0214" y="-13" width="160" relative="1" as="geometry">
                        <mxPoint x="700" y="813.76" as="sourcePoint"/>
                        <mxPoint x="608.94" y="840" as="targetPoint"/>
                        <mxPoint as="offset"/>
                    </mxGeometry>
                </mxCell>
                <mxCell id="43" value="&amp;lt;&amp;lt;extend&amp;gt;&amp;gt;" style="endArrow=open;endSize=12;dashed=1;html=1;rounded=0;exitX=0.068;exitY=0.659;exitDx=0;exitDy=0;entryX=0.984;entryY=0.607;entryDx=0;entryDy=0;exitPerimeter=0;entryPerimeter=0;" edge="1" parent="1" source="41" target="39">
                    <mxGeometry x="0.2714" y="5" width="160" relative="1" as="geometry">
                        <mxPoint x="721" y="814" as="sourcePoint"/>
                        <mxPoint x="630" y="840" as="targetPoint"/>
                        <mxPoint as="offset"/>
                    </mxGeometry>
                </mxCell>
                <mxCell id="44" value="Envoyer un message d&#39;urgence a le camerman" style="ellipse;whiteSpace=wrap;html=1;fillColor=#e1d5e7;strokeColor=#9673a6;" vertex="1" parent="1">
                    <mxGeometry x="499" y="909" width="268" height="40" as="geometry"/>
                </mxCell>
                <mxCell id="45" value="Gestion des accès" style="ellipse;whiteSpace=wrap;html=1;fillColor=#e1d5e7;strokeColor=#9673a6;" vertex="1" parent="1">
                    <mxGeometry x="510" y="1010" width="140" height="40" as="geometry"/>
                </mxCell>
                <mxCell id="46" value="cme" style="ellipse;whiteSpace=wrap;html=1;fillColor=#e1d5e7;strokeColor=#9673a6;" vertex="1" parent="1">
                    <mxGeometry x="919" y="959" width="80" height="22" as="geometry"/>
                </mxCell>
                <mxCell id="47" value="Coach" style="ellipse;whiteSpace=wrap;html=1;fillColor=#e1d5e7;strokeColor=#9673a6;" vertex="1" parent="1">
                    <mxGeometry x="928" y="991" width="80" height="23" as="geometry"/>
                </mxCell>
                <mxCell id="48" value="Etudiante Admit SAS" style="ellipse;whiteSpace=wrap;html=1;fillColor=#e1d5e7;strokeColor=#9673a6;" vertex="1" parent="1">
                    <mxGeometry x="914" y="1024" width="139" height="29" as="geometry"/>
                </mxCell>
                <mxCell id="49" value="BDE" style="ellipse;whiteSpace=wrap;html=1;fillColor=#e1d5e7;strokeColor=#9673a6;" vertex="1" parent="1">
                    <mxGeometry x="928" y="1069" width="95" height="23" as="geometry"/>
                </mxCell>
                <mxCell id="50" value="&amp;lt;&amp;lt;extend&amp;gt;&amp;gt;" style="endArrow=open;endSize=12;dashed=1;html=1;rounded=0;exitX=0;exitY=0.5;exitDx=0;exitDy=0;entryX=0.947;entryY=0.397;entryDx=0;entryDy=0;entryPerimeter=0;" edge="1" parent="1" source="46" target="63">
                    <mxGeometry x="0.0342" y="-11" width="160" relative="1" as="geometry">
                        <mxPoint x="882.72" y="998.76" as="sourcePoint"/>
                        <mxPoint x="817.6800000000001" y="1030.0400000000002" as="targetPoint"/>
                        <mxPoint as="offset"/>
                    </mxGeometry>
                </mxCell>
                <mxCell id="51" value="&amp;lt;&amp;lt;extend&amp;gt;&amp;gt;" style="endArrow=open;endSize=12;dashed=1;html=1;rounded=0;entryX=0.947;entryY=0.787;entryDx=0;entryDy=0;entryPerimeter=0;" edge="1" parent="1" source="47" target="63">
                    <mxGeometry x="0.1213" y="-2" width="160" relative="1" as="geometry">
                        <mxPoint x="710" y="1010" as="sourcePoint"/>
                        <mxPoint x="802" y="1046" as="targetPoint"/>
                        <mxPoint as="offset"/>
                    </mxGeometry>
                </mxCell>
                <mxCell id="52" value="&amp;lt;&amp;lt;extend&amp;gt;&amp;gt;" style="endArrow=open;endSize=12;dashed=1;html=1;rounded=0;exitX=0;exitY=0.5;exitDx=0;exitDy=0;" edge="1" parent="1" source="48" target="63">
                    <mxGeometry x="-0.3879" y="-9" width="160" relative="1" as="geometry">
                        <mxPoint x="884.72" y="1058" as="sourcePoint"/>
                        <mxPoint x="802.0630375091953" y="1049.1861232838935" as="targetPoint"/>
                        <mxPoint as="offset"/>
                        <Array as="points">
                            <mxPoint x="840" y="1030"/>
                        </Array>
                    </mxGeometry>
                </mxCell>
                <mxCell id="53" value="Visuliser les statistiques" style="ellipse;whiteSpace=wrap;html=1;fillColor=#e1d5e7;strokeColor=#9673a6;" vertex="1" parent="1">
                    <mxGeometry x="490" y="1180" width="140" height="40" as="geometry"/>
                </mxCell>
                <mxCell id="54" value="Nombre d&#39;authentifiés" style="ellipse;whiteSpace=wrap;html=1;fillColor=#e1d5e7;strokeColor=#9673a6;" vertex="1" parent="1">
                    <mxGeometry x="725" y="1202" width="140" height="28" as="geometry"/>
                </mxCell>
                <mxCell id="55" value="Nombre d&#39;accès aux postulants des événements" style="ellipse;whiteSpace=wrap;html=1;fillColor=#e1d5e7;strokeColor=#9673a6;" vertex="1" parent="1">
                    <mxGeometry x="730" y="1244" width="213" height="36" as="geometry"/>
                </mxCell>
                <mxCell id="56" value="Nombre d&#39;événements postulés" style="ellipse;whiteSpace=wrap;html=1;fillColor=#e1d5e7;strokeColor=#9673a6;" vertex="1" parent="1">
                    <mxGeometry x="730" y="1295" width="205" height="29" as="geometry"/>
                </mxCell>
                <mxCell id="57" value="Nombre en attente de compléter le processus cameraman" style="ellipse;whiteSpace=wrap;html=1;fillColor=#e1d5e7;strokeColor=#9673a6;" vertex="1" parent="1">
                    <mxGeometry x="712" y="1338" width="337" height="26" as="geometry"/>
                </mxCell>
                <mxCell id="58" value="&amp;lt;&amp;lt;extend&amp;gt;&amp;gt;" style="endArrow=open;endSize=12;dashed=1;html=1;rounded=0;entryX=1;entryY=0.5;entryDx=0;entryDy=0;entryPerimeter=0;" edge="1" parent="1" source="54" target="53">
                    <mxGeometry x="-0.2272" y="-14" width="160" relative="1" as="geometry">
                        <mxPoint x="700" y="1190" as="sourcePoint"/>
                        <mxPoint x="645" y="1215" as="targetPoint"/>
                        <mxPoint as="offset"/>
                    </mxGeometry>
                </mxCell>
                <mxCell id="59" value="&amp;lt;&amp;lt;extend&amp;gt;&amp;gt;" style="endArrow=open;endSize=12;dashed=1;html=1;rounded=0;entryX=0.923;entryY=0.739;entryDx=0;entryDy=0;entryPerimeter=0;exitX=0.065;exitY=0.342;exitDx=0;exitDy=0;exitPerimeter=0;" edge="1" parent="1" source="55" target="53">
                    <mxGeometry x="0.0546" y="9" width="160" relative="1" as="geometry">
                        <mxPoint x="736" y="1216" as="sourcePoint"/>
                        <mxPoint x="640" y="1210" as="targetPoint"/>
                        <mxPoint as="offset"/>
                    </mxGeometry>
                </mxCell>
                <mxCell id="60" value="&amp;lt;&amp;lt;extend&amp;gt;&amp;gt;" style="endArrow=open;endSize=12;dashed=1;html=1;rounded=0;entryX=0.804;entryY=0.859;entryDx=0;entryDy=0;entryPerimeter=0;exitX=0.048;exitY=0.391;exitDx=0;exitDy=0;exitPerimeter=0;" edge="1" parent="1" source="56" target="53">
                    <mxGeometry x="-0.1231" y="-2" width="160" relative="1" as="geometry">
                        <mxPoint x="760" y="1256" as="sourcePoint"/>
                        <mxPoint x="629" y="1220" as="targetPoint"/>
                        <mxPoint as="offset"/>
                    </mxGeometry>
                </mxCell>
                <mxCell id="61" value="&amp;lt;&amp;lt;extend&amp;gt;&amp;gt;" style="endArrow=open;endSize=12;dashed=1;html=1;rounded=0;exitX=0;exitY=0.5;exitDx=0;exitDy=0;" edge="1" parent="1" source="57" target="53">
                    <mxGeometry x="-0.2272" y="-14" width="160" relative="1" as="geometry">
                        <mxPoint x="738" y="1338" as="sourcePoint"/>
                        <mxPoint x="613" y="1224" as="targetPoint"/>
                        <mxPoint as="offset"/>
                    </mxGeometry>
                </mxCell>
                <mxCell id="62" value="Lancer la vidéo en direct" style="ellipse;whiteSpace=wrap;html=1;fillColor=#e1d5e7;strokeColor=#9673a6;" vertex="1" parent="1">
                    <mxGeometry x="513" y="1433" width="140" height="29" as="geometry"/>
                </mxCell>
                <mxCell id="63" value="Postule evenement" style="ellipse;whiteSpace=wrap;html=1;fillColor=#e1d5e7;strokeColor=#9673a6;" vertex="1" parent="1">
                    <mxGeometry x="712" y="951" width="84" height="40" as="geometry"/>
                </mxCell>
                <mxCell id="64" value="Lancer Stream Video" style="ellipse;whiteSpace=wrap;html=1;fillColor=#e1d5e7;strokeColor=#9673a6;" vertex="1" parent="1">
                    <mxGeometry x="710" y="1084" width="163" height="28" as="geometry"/>
                </mxCell>
                <mxCell id="65" value="&amp;lt;&amp;lt;extend&amp;gt;&amp;gt;" style="endArrow=open;endSize=12;dashed=1;html=1;rounded=0;exitX=0;exitY=1;exitDx=0;exitDy=0;entryX=0.959;entryY=0.265;entryDx=0;entryDy=0;entryPerimeter=0;" edge="1" parent="1" source="63" target="45">
                    <mxGeometry x="0.0572" y="-18" width="160" relative="1" as="geometry">
                        <mxPoint x="706" y="1037" as="sourcePoint"/>
                        <mxPoint x="590" y="1035" as="targetPoint"/>
                        <mxPoint as="offset"/>
                    </mxGeometry>
                </mxCell>
                <mxCell id="66" value="&amp;lt;&amp;lt;extend&amp;gt;&amp;gt;" style="endArrow=open;endSize=12;dashed=1;html=1;rounded=0;exitX=0;exitY=0;exitDx=0;exitDy=0;entryX=1;entryY=0.5;entryDx=0;entryDy=0;" edge="1" parent="1" source="64" target="45">
                    <mxGeometry x="-0.7634" y="-9" width="160" relative="1" as="geometry">
                        <mxPoint x="737" y="1004" as="sourcePoint"/>
                        <mxPoint x="654" y="1031" as="targetPoint"/>
                        <mxPoint as="offset"/>
                    </mxGeometry>
                </mxCell>
                <mxCell id="67" value="Continuer le processus d&#39;envoi de l&#39;événement." style="ellipse;whiteSpace=wrap;html=1;fillColor=#e1d5e7;strokeColor=#9673a6;" vertex="1" parent="1">
                    <mxGeometry x="510" y="1506" width="188" height="60" as="geometry"/>
                </mxCell>
                <mxCell id="68" value="Traiter Cours Francais&amp;nbsp;" style="ellipse;whiteSpace=wrap;html=1;fillColor=#e1d5e7;strokeColor=#9673a6;" vertex="1" parent="1">
                    <mxGeometry x="510" y="1579" width="140" height="40" as="geometry"/>
                </mxCell>
                <mxCell id="69" value="Nombre en attente de validation des cours de français" style="ellipse;whiteSpace=wrap;html=1;fillColor=#e1d5e7;strokeColor=#9673a6;" vertex="1" parent="1">
                    <mxGeometry x="762" y="1381" width="270" height="46" as="geometry"/>
                </mxCell>
                <mxCell id="70" value="Nombre cours Lancer de cours Francais" style="ellipse;whiteSpace=wrap;html=1;fillColor=#e1d5e7;strokeColor=#9673a6;" vertex="1" parent="1">
                    <mxGeometry x="728" y="1518" width="245" height="28" as="geometry"/>
                </mxCell>
                <mxCell id="71" value="&amp;lt;&amp;lt;extend&amp;gt;&amp;gt;" style="endArrow=open;endSize=12;dashed=1;html=1;rounded=0;exitX=0.055;exitY=0.309;exitDx=0;exitDy=0;entryX=0.367;entryY=0.898;entryDx=0;entryDy=0;entryPerimeter=0;exitPerimeter=0;" edge="1" parent="1" source="69" target="53">
                    <mxGeometry x="-0.2557" y="-5" width="160" relative="1" as="geometry">
                        <mxPoint x="725" y="1390" as="sourcePoint"/>
                        <mxPoint x="587" y="1229" as="targetPoint"/>
                        <mxPoint as="offset"/>
                        <Array as="points">
                            <mxPoint x="638" y="1355"/>
                        </Array>
                    </mxGeometry>
                </mxCell>
                <mxCell id="72" value="&amp;lt;&amp;lt;extend&amp;gt;&amp;gt;" style="endArrow=open;endSize=12;dashed=1;html=1;rounded=0;exitX=0;exitY=0.5;exitDx=0;exitDy=0;entryX=0.228;entryY=0.858;entryDx=0;entryDy=0;entryPerimeter=0;" edge="1" parent="1" source="70" target="53">
                    <mxGeometry x="-0.2272" y="-14" width="160" relative="1" as="geometry">
                        <mxPoint x="755" y="1439" as="sourcePoint"/>
                        <mxPoint x="551" y="1226" as="targetPoint"/>
                        <mxPoint as="offset"/>
                        <Array as="points">
                            <mxPoint x="608" y="1382"/>
                        </Array>
                    </mxGeometry>
                </mxCell>
                <mxCell id="73" value="Valider&amp;nbsp;" style="ellipse;whiteSpace=wrap;html=1;fillColor=#e1d5e7;strokeColor=#9673a6;" vertex="1" parent="1">
                    <mxGeometry x="736" y="1576" width="140" height="18" as="geometry"/>
                </mxCell>
                <mxCell id="74" value="Refuser" style="ellipse;whiteSpace=wrap;html=1;fillColor=#e1d5e7;strokeColor=#9673a6;" vertex="1" parent="1">
                    <mxGeometry x="770" y="1619" width="87" height="23" as="geometry"/>
                </mxCell>
                <mxCell id="75" value="&amp;lt;&amp;lt;extend&amp;gt;&amp;gt;" style="endArrow=open;endSize=12;dashed=1;html=1;rounded=0;entryX=0.879;entryY=0.199;entryDx=0;entryDy=0;exitX=0.018;exitY=0.38;exitDx=0;exitDy=0;exitPerimeter=0;entryPerimeter=0;" edge="1" parent="1" source="73" target="68">
                    <mxGeometry x="-0.0978" y="-6" width="160" relative="1" as="geometry">
                        <mxPoint x="737" y="1611" as="sourcePoint"/>
                        <mxPoint x="640" y="1605" as="targetPoint"/>
                        <mxPoint as="offset"/>
                    </mxGeometry>
                </mxCell>
                <mxCell id="76" value="&amp;lt;&amp;lt;extend&amp;gt;&amp;gt;" style="endArrow=open;endSize=12;dashed=1;html=1;rounded=0;entryX=0.922;entryY=0.741;entryDx=0;entryDy=0;entryPerimeter=0;" edge="1" parent="1" source="74" target="68">
                    <mxGeometry x="-0.2272" y="-14" width="160" relative="1" as="geometry">
                        <mxPoint x="726" y="1588" as="sourcePoint"/>
                        <mxPoint x="650" y="1615" as="targetPoint"/>
                        <mxPoint as="offset"/>
                    </mxGeometry>
                </mxCell>
                <mxCell id="77" value="Visualiser l&#39;interface Etudiant" style="ellipse;whiteSpace=wrap;html=1;fillColor=#e1d5e7;strokeColor=#9673a6;" vertex="1" parent="1">
                    <mxGeometry x="507" y="1660" width="140" height="40" as="geometry"/>
                </mxCell>
                <mxCell id="78" value="&amp;lt;&amp;lt;include&amp;gt;&amp;gt;" style="endArrow=open;endSize=12;dashed=1;html=1;rounded=0;" edge="1" parent="1" source="39">
                    <mxGeometry x="-0.1085" y="11" width="160" relative="1" as="geometry">
                        <mxPoint x="590" y="700" as="sourcePoint"/>
                        <mxPoint x="1189" y="460" as="targetPoint"/>
                        <mxPoint as="offset"/>
                        <Array as="points">
                            <mxPoint x="845" y="728"/>
                            <mxPoint x="1150" y="530"/>
                        </Array>
                    </mxGeometry>
                </mxCell>
                <mxCell id="79" value="&amp;lt;&amp;lt;include&amp;gt;&amp;gt;" style="endArrow=open;endSize=12;dashed=1;html=1;rounded=0;exitX=1;exitY=0.5;exitDx=0;exitDy=0;entryX=1;entryY=1;entryDx=0;entryDy=0;" edge="1" parent="1" source="44" target="24">
                    <mxGeometry x="-0.1085" y="11" width="160" relative="1" as="geometry">
                        <mxPoint x="598" y="853" as="sourcePoint"/>
                        <mxPoint x="1199" y="470" as="targetPoint"/>
                        <mxPoint as="offset"/>
                        <Array as="points">
                            <mxPoint x="895" y="933"/>
                            <mxPoint x="1036" y="796"/>
                            <mxPoint x="1160" y="540"/>
                        </Array>
                    </mxGeometry>
                </mxCell>
                <mxCell id="80" value="&amp;lt;&amp;lt;include&amp;gt;&amp;gt;" style="endArrow=open;endSize=12;dashed=1;html=1;rounded=0;exitX=0.623;exitY=0.971;exitDx=0;exitDy=0;entryX=1;entryY=1;entryDx=0;entryDy=0;exitPerimeter=0;" edge="1" parent="1" source="45" target="24">
                    <mxGeometry x="0.2591" width="160" relative="1" as="geometry">
                        <mxPoint x="650" y="960" as="sourcePoint"/>
                        <mxPoint x="1249" y="454" as="targetPoint"/>
                        <mxPoint x="1" as="offset"/>
                        <Array as="points">
                            <mxPoint x="780" y="1176"/>
                            <mxPoint x="931" y="1216"/>
                            <mxPoint x="1033" y="1278"/>
                            <mxPoint x="1176" y="760"/>
                            <mxPoint x="1249" y="553"/>
                        </Array>
                    </mxGeometry>
                </mxCell>
                <mxCell id="81" value="&amp;lt;&amp;lt;include&amp;gt;&amp;gt;" style="endArrow=open;endSize=12;dashed=1;html=1;rounded=0;exitX=0.656;exitY=0.01;exitDx=0;exitDy=0;entryX=0.975;entryY=0.708;entryDx=0;entryDy=0;exitPerimeter=0;entryPerimeter=0;" edge="1" parent="1" source="53" target="24">
                    <mxGeometry x="0.2591" width="160" relative="1" as="geometry">
                        <mxPoint x="607" y="1059" as="sourcePoint"/>
                        <mxPoint x="1249" y="454" as="targetPoint"/>
                        <mxPoint x="1" as="offset"/>
                        <Array as="points">
                            <mxPoint x="870" y="1204"/>
                            <mxPoint x="938" y="1244"/>
                            <mxPoint x="1043" y="1294"/>
                            <mxPoint x="1186" y="770"/>
                            <mxPoint x="1259" y="563"/>
                        </Array>
                    </mxGeometry>
                </mxCell>
                <mxCell id="82" value="&amp;lt;&amp;lt;include&amp;gt;&amp;gt;" style="endArrow=open;endSize=12;dashed=1;html=1;rounded=0;exitX=0.966;exitY=0.706;exitDx=0;exitDy=0;exitPerimeter=0;" edge="1" parent="1" source="62">
                    <mxGeometry x="0.2591" width="160" relative="1" as="geometry">
                        <mxPoint x="596" y="1439" as="sourcePoint"/>
                        <mxPoint x="1253" y="439" as="targetPoint"/>
                        <mxPoint x="1" as="offset"/>
                        <Array as="points">
                            <mxPoint x="735" y="1481"/>
                            <mxPoint x="955" y="1487"/>
                            <mxPoint x="1090" y="1409"/>
                            <mxPoint x="1200" y="1029"/>
                            <mxPoint x="1273" y="822"/>
                        </Array>
                    </mxGeometry>
                </mxCell>
                <mxCell id="83" value="&amp;lt;&amp;lt;include&amp;gt;&amp;gt;" style="endArrow=open;endSize=12;dashed=1;html=1;rounded=0;exitX=0.916;exitY=0.764;exitDx=0;exitDy=0;exitPerimeter=0;entryX=1;entryY=0.5;entryDx=0;entryDy=0;" edge="1" parent="1" source="67" target="24">
                    <mxGeometry x="0.2591" width="160" relative="1" as="geometry">
                        <mxPoint x="647" y="1527" as="sourcePoint"/>
                        <mxPoint x="1255" y="498" as="targetPoint"/>
                        <mxPoint x="1" as="offset"/>
                        <Array as="points">
                            <mxPoint x="743" y="1558"/>
                            <mxPoint x="957" y="1571"/>
                            <mxPoint x="1092" y="1468"/>
                            <mxPoint x="1202" y="1088"/>
                            <mxPoint x="1275" y="881"/>
                        </Array>
                    </mxGeometry>
                </mxCell>
                <mxCell id="84" value="&amp;lt;&amp;lt;include&amp;gt;&amp;gt;" style="endArrow=open;endSize=12;dashed=1;html=1;rounded=0;exitX=0.966;exitY=0.706;exitDx=0;exitDy=0;exitPerimeter=0;" edge="1" parent="1">
                    <mxGeometry x="0.2591" width="160" relative="1" as="geometry">
                        <mxPoint x="620" y="1619" as="sourcePoint"/>
                        <mxPoint x="1253" y="442" as="targetPoint"/>
                        <mxPoint x="1" as="offset"/>
                        <Array as="points">
                            <mxPoint x="709" y="1680"/>
                            <mxPoint x="825" y="1700"/>
                            <mxPoint x="930" y="1663"/>
                            <mxPoint x="1248" y="1517"/>
                            <mxPoint x="1350" y="1163"/>
                            <mxPoint x="1413" y="907"/>
                        </Array>
                    </mxGeometry>
                </mxCell>
                <mxCell id="85" value="&amp;lt;&amp;lt;include&amp;gt;&amp;gt;" style="endArrow=open;endSize=12;dashed=1;html=1;rounded=0;exitX=0.966;exitY=0.706;exitDx=0;exitDy=0;exitPerimeter=0;" edge="1" parent="1">
                    <mxGeometry x="0.2591" width="160" relative="1" as="geometry">
                        <mxPoint x="620" y="1697" as="sourcePoint"/>
                        <mxPoint x="1257" y="437" as="targetPoint"/>
                        <mxPoint x="1" as="offset"/>
                        <Array as="points">
                            <mxPoint x="709" y="1758"/>
                            <mxPoint x="825" y="1778"/>
                            <mxPoint x="930" y="1741"/>
                            <mxPoint x="1248" y="1595"/>
                            <mxPoint x="1350" y="1241"/>
                            <mxPoint x="1483" y="952"/>
                            <mxPoint x="1466" y="671"/>
                        </Array>
                    </mxGeometry>
                </mxCell>
                <mxCell id="86" value="Modifier Profil" style="ellipse;whiteSpace=wrap;html=1;fillColor=#e1d5e7;strokeColor=#9673a6;" vertex="1" parent="1">
                    <mxGeometry x="434" y="727" width="140" height="29" as="geometry"/>
                </mxCell>
                <mxCell id="87" value="&amp;lt;&amp;lt;include&amp;gt;&amp;gt;" style="endArrow=open;endSize=12;dashed=1;html=1;rounded=0;exitX=1;exitY=0.5;exitDx=0;exitDy=0;entryX=0.693;entryY=0.911;entryDx=0;entryDy=0;entryPerimeter=0;" edge="1" parent="1" source="86" target="24">
                    <mxGeometry x="0.0368" y="7" width="160" relative="1" as="geometry">
                        <mxPoint x="590" y="700" as="sourcePoint"/>
                        <mxPoint x="1189" y="460" as="targetPoint"/>
                        <mxPoint as="offset"/>
                        <Array as="points">
                            <mxPoint x="810" y="710"/>
                            <mxPoint x="1150" y="530"/>
                        </Array>
                    </mxGeometry>
                </mxCell>
                <mxCell id="88" value="Acceder compte" style="ellipse;whiteSpace=wrap;html=1;fillColor=#e1d5e7;strokeColor=#9673a6;" vertex="1" parent="1">
                    <mxGeometry x="518" y="1816" width="140" height="40" as="geometry"/>
                </mxCell>
                <mxCell id="89" value="Accéder à l&#39;interface publique" style="ellipse;whiteSpace=wrap;html=1;fillColor=#e1d5e7;strokeColor=#9673a6;" vertex="1" parent="1">
                    <mxGeometry x="535" y="1906" width="180" height="38" as="geometry"/>
                </mxCell>
                <mxCell id="90" value="" style="endArrow=none;html=1;rounded=0;entryX=0.072;entryY=0.717;entryDx=0;entryDy=0;entryPerimeter=0;" edge="1" parent="1" target="88">
                    <mxGeometry width="50" height="50" relative="1" as="geometry">
                        <mxPoint x="194" y="1907" as="sourcePoint"/>
                        <mxPoint x="505" y="1845" as="targetPoint"/>
                    </mxGeometry>
                </mxCell>
                <mxCell id="91" value="" style="endArrow=none;html=1;rounded=0;" edge="1" parent="1" target="89">
                    <mxGeometry width="50" height="50" relative="1" as="geometry">
                        <mxPoint x="196" y="1908" as="sourcePoint"/>
                        <mxPoint x="554" y="1945" as="targetPoint"/>
                    </mxGeometry>
                </mxCell>
                <mxCell id="92" value="Visualiser les statistiques des cours" style="ellipse;whiteSpace=wrap;html=1;fillColor=#e1d5e7;strokeColor=#9673a6;" vertex="1" parent="1">
                    <mxGeometry x="521" y="1998" width="199" height="40" as="geometry"/>
                </mxCell>
                <mxCell id="93" value="" style="endArrow=none;html=1;rounded=0;" edge="1" parent="1" target="92">
                    <mxGeometry width="50" height="50" relative="1" as="geometry">
                        <mxPoint x="196" y="1909" as="sourcePoint"/>
                        <mxPoint x="551" y="1987" as="targetPoint"/>
                    </mxGeometry>
                </mxCell>
                <mxCell id="94" value="En attente de validation par l&#39;administration" style="ellipse;whiteSpace=wrap;html=1;fillColor=#e1d5e7;strokeColor=#9673a6;" vertex="1" parent="1">
                    <mxGeometry x="806" y="1986" width="252" height="40" as="geometry"/>
                </mxCell>
                <mxCell id="95" value="Postuler sur la plateforme" style="ellipse;whiteSpace=wrap;html=1;fillColor=#e1d5e7;strokeColor=#9673a6;" vertex="1" parent="1">
                    <mxGeometry x="825" y="2090" width="184" height="28" as="geometry"/>
                </mxCell>
                <mxCell id="96" value="&amp;lt;&amp;lt;extend&amp;gt;&amp;gt;" style="endArrow=open;endSize=12;dashed=1;html=1;rounded=0;entryX=1;entryY=0;entryDx=0;entryDy=0;exitX=0;exitY=0.5;exitDx=0;exitDy=0;" edge="1" parent="1" source="94" target="92">
                    <mxGeometry x="-1" y="-91" width="160" relative="1" as="geometry">
                        <mxPoint x="756" y="2080" as="sourcePoint"/>
                        <mxPoint x="664" y="2054" as="targetPoint"/>
                        <mxPoint x="53" y="18" as="offset"/>
                    </mxGeometry>
                </mxCell>
                <mxCell id="97" value="&amp;lt;&amp;lt;extend&amp;gt;&amp;gt;" style="endArrow=open;endSize=12;dashed=1;html=1;rounded=0;entryX=1;entryY=1;entryDx=0;entryDy=0;" edge="1" parent="1" source="95" target="92">
                    <mxGeometry x="-0.2272" y="-14" width="160" relative="1" as="geometry">
                        <mxPoint x="740" y="2050" as="sourcePoint"/>
                        <mxPoint x="664" y="2067" as="targetPoint"/>
                        <mxPoint as="offset"/>
                    </mxGeometry>
                </mxCell>
                <mxCell id="98" value="Modifier le compte" style="ellipse;whiteSpace=wrap;html=1;fillColor=#e1d5e7;strokeColor=#9673a6;" vertex="1" parent="1">
                    <mxGeometry x="518" y="2109" width="140" height="31" as="geometry"/>
                </mxCell>
                <mxCell id="99" value="" style="endArrow=none;html=1;rounded=0;" edge="1" parent="1" target="98">
                    <mxGeometry width="50" height="50" relative="1" as="geometry">
                        <mxPoint x="196" y="1909" as="sourcePoint"/>
                        <mxPoint x="559" y="2053" as="targetPoint"/>
                    </mxGeometry>
                </mxCell>
                <mxCell id="100" value="Admit_YC" style="shape=umlActor;verticalLabelPosition=bottom;verticalAlign=top;html=1;outlineConnect=0;fillColor=#f8cecc;strokeColor=#b85450;" vertex="1" parent="1">
                    <mxGeometry x="97" y="2349" width="80" height="110" as="geometry"/>
                </mxCell>
                <mxCell id="101" value="Non_Admit_SAS" style="shape=umlActor;verticalLabelPosition=bottom;verticalAlign=top;html=1;outlineConnect=0;fillColor=#f8cecc;strokeColor=#b85450;" vertex="1" parent="1">
                    <mxGeometry x="103" y="2592" width="80" height="110" as="geometry"/>
                </mxCell>
                <mxCell id="102" value="Visulaliser le plateforme" style="ellipse;whiteSpace=wrap;html=1;fillColor=#e1d5e7;strokeColor=#9673a6;" vertex="1" parent="1">
                    <mxGeometry x="324" y="2159" width="140" height="40" as="geometry"/>
                </mxCell>
                <mxCell id="103" value="Acceder a le cours Francais&amp;nbsp;" style="ellipse;whiteSpace=wrap;html=1;fillColor=#e1d5e7;strokeColor=#9673a6;" vertex="1" parent="1">
                    <mxGeometry x="308" y="2369" width="140" height="40" as="geometry"/>
                </mxCell>
                <mxCell id="104" value="Acceder a le&amp;nbsp; Stream" style="ellipse;whiteSpace=wrap;html=1;fillColor=#e1d5e7;strokeColor=#9673a6;" vertex="1" parent="1">
                    <mxGeometry x="310" y="2424" width="140" height="40" as="geometry"/>
                </mxCell>
                <mxCell id="105" value="Visualition programme" style="ellipse;whiteSpace=wrap;html=1;fillColor=#e1d5e7;strokeColor=#9673a6;" vertex="1" parent="1">
                    <mxGeometry x="326" y="2584" width="140" height="40" as="geometry"/>
                </mxCell>
                <mxCell id="106" value="" style="endArrow=none;dashed=1;html=1;rounded=0;entryX=0.418;entryY=1.003;entryDx=0;entryDy=0;entryPerimeter=0;exitX=0.156;exitY=0.005;exitDx=0;exitDy=0;exitPerimeter=0;" edge="1" parent="1" source="22" target="20">
                    <mxGeometry width="50" height="50" relative="1" as="geometry">
                        <mxPoint x="697" y="396" as="sourcePoint"/>
                        <mxPoint x="747" y="346" as="targetPoint"/>
                    </mxGeometry>
                </mxCell>
                <mxCell id="107" value="" style="endArrow=block;endSize=16;endFill=0;html=1;rounded=0;entryX=0.954;entryY=0.687;entryDx=0;entryDy=0;exitX=0.076;exitY=0.735;exitDx=0;exitDy=0;exitPerimeter=0;entryPerimeter=0;" edge="1" parent="1" source="33" target="32">
                    <mxGeometry width="160" relative="1" as="geometry">
                        <mxPoint x="586" y="643" as="sourcePoint"/>
                        <mxPoint x="746" y="643" as="targetPoint"/>
                    </mxGeometry>
                </mxCell>
                <mxCell id="108" value="" style="endArrow=block;endSize=16;endFill=0;html=1;rounded=0;entryX=0.56;entryY=1;entryDx=0;entryDy=0;exitX=0;exitY=0.5;exitDx=0;exitDy=0;entryPerimeter=0;" edge="1" parent="1" source="34" target="32">
                    <mxGeometry width="160" relative="1" as="geometry">
                        <mxPoint x="728" y="632" as="sourcePoint"/>
                        <mxPoint x="619" y="615" as="targetPoint"/>
                    </mxGeometry>
                </mxCell>
                <mxCell id="109" value="&amp;lt;&amp;lt;extend&amp;gt;&amp;gt;" style="endArrow=open;endSize=12;dashed=1;html=1;rounded=0;exitX=0.057;exitY=0.625;exitDx=0;exitDy=0;exitPerimeter=0;entryX=0.378;entryY=0.954;entryDx=0;entryDy=0;entryPerimeter=0;" edge="1" parent="1" source="49" target="63">
                    <mxGeometry x="-0.5716" y="-11" width="160" relative="1" as="geometry">
                        <mxPoint x="924" y="1049" as="sourcePoint"/>
                        <mxPoint x="788" y="997" as="targetPoint"/>
                        <mxPoint as="offset"/>
                        <Array as="points">
                            <mxPoint x="845" y="1056"/>
                        </Array>
                    </mxGeometry>
                </mxCell>
                <mxCell id="110" value="&amp;lt;&amp;lt;extend&amp;gt;&amp;gt;" style="endArrow=open;endSize=12;dashed=1;html=1;rounded=0;exitX=0.913;exitY=0.761;exitDx=0;exitDy=0;exitPerimeter=0;entryX=1;entryY=1;entryDx=0;entryDy=0;" edge="1" parent="1" source="64" target="49">
                    <mxGeometry x="-0.5716" y="-11" width="160" relative="1" as="geometry">
                        <mxPoint x="943" y="1093" as="sourcePoint"/>
                        <mxPoint x="754" y="999" as="targetPoint"/>
                        <mxPoint as="offset"/>
                        <Array as="points">
                            <mxPoint x="977" y="1111"/>
                        </Array>
                    </mxGeometry>
                </mxCell>
                <mxCell id="111" value="&amp;lt;&amp;lt;extend&amp;gt;&amp;gt;" style="endArrow=open;endSize=12;dashed=1;html=1;rounded=0;exitX=0.5;exitY=1;exitDx=0;exitDy=0;entryX=1;entryY=1;entryDx=0;entryDy=0;" edge="1" parent="1" source="64" target="48">
                    <mxGeometry x="-0.5716" y="-11" width="160" relative="1" as="geometry">
                        <mxPoint x="869" y="1115" as="sourcePoint"/>
                        <mxPoint x="1023" y="1095" as="targetPoint"/>
                        <mxPoint as="offset"/>
                        <Array as="points">
                            <mxPoint x="898" y="1133"/>
                            <mxPoint x="1021" y="1133"/>
                        </Array>
                    </mxGeometry>
                </mxCell>
                <mxCell id="112" value="&amp;lt;&amp;lt;extend&amp;gt;&amp;gt;" style="endArrow=open;endSize=12;dashed=1;html=1;rounded=0;exitX=0.254;exitY=0.972;exitDx=0;exitDy=0;entryX=0.779;entryY=0.126;entryDx=0;entryDy=0;exitPerimeter=0;entryPerimeter=0;" edge="1" parent="1" source="64" target="47">
                    <mxGeometry x="-0.5716" y="-11" width="160" relative="1" as="geometry">
                        <mxPoint x="802" y="1122" as="sourcePoint"/>
                        <mxPoint x="1043" y="1059" as="targetPoint"/>
                        <mxPoint as="offset"/>
                        <Array as="points">
                            <mxPoint x="904" y="1186"/>
                            <mxPoint x="1038" y="1148"/>
                            <mxPoint x="1061" y="1053"/>
                            <mxPoint x="1038" y="978"/>
                        </Array>
                    </mxGeometry>
                </mxCell>
                <mxCell id="113" value="&amp;lt;&amp;lt;extend&amp;gt;&amp;gt;" style="endArrow=open;endSize=12;dashed=1;html=1;rounded=0;exitX=0;exitY=1;exitDx=0;exitDy=0;entryX=1;entryY=0.5;entryDx=0;entryDy=0;" edge="1" parent="1" source="64" target="46">
                    <mxGeometry x="-0.3426" y="5" width="160" relative="1" as="geometry">
                        <mxPoint x="761" y="1121" as="sourcePoint"/>
                        <mxPoint x="1000" y="1004" as="targetPoint"/>
                        <mxPoint as="offset"/>
                        <Array as="points">
                            <mxPoint x="803" y="1173"/>
                            <mxPoint x="952" y="1211"/>
                            <mxPoint x="1048" y="1158"/>
                            <mxPoint x="1071" y="1063"/>
                            <mxPoint x="1054" y="968"/>
                        </Array>
                    </mxGeometry>
                </mxCell>
                <mxCell id="114" value="" style="endArrow=none;html=1;rounded=0;entryX=0.043;entryY=0.63;entryDx=0;entryDy=0;entryPerimeter=0;" edge="1" parent="1" target="39">
                    <mxGeometry width="50" height="50" relative="1" as="geometry">
                        <mxPoint x="191" y="946" as="sourcePoint"/>
                        <mxPoint x="469" y="976" as="targetPoint"/>
                    </mxGeometry>
                </mxCell>
                <mxCell id="115" value="" style="endArrow=none;html=1;rounded=0;entryX=0;entryY=0.5;entryDx=0;entryDy=0;" edge="1" parent="1" target="44">
                    <mxGeometry width="50" height="50" relative="1" as="geometry">
                        <mxPoint x="193" y="947" as="sourcePoint"/>
                        <mxPoint x="499" y="877" as="targetPoint"/>
                    </mxGeometry>
                </mxCell>
                <mxCell id="116" value="" style="endArrow=none;html=1;rounded=0;entryX=0;entryY=0.5;entryDx=0;entryDy=0;" edge="1" parent="1" target="45">
                    <mxGeometry width="50" height="50" relative="1" as="geometry">
                        <mxPoint x="192" y="947" as="sourcePoint"/>
                        <mxPoint x="509" y="939" as="targetPoint"/>
                    </mxGeometry>
                </mxCell>
                <mxCell id="117" value="" style="endArrow=none;html=1;rounded=0;entryX=0;entryY=0.5;entryDx=0;entryDy=0;" edge="1" parent="1" target="53">
                    <mxGeometry width="50" height="50" relative="1" as="geometry">
                        <mxPoint x="193" y="947" as="sourcePoint"/>
                        <mxPoint x="520" y="1040" as="targetPoint"/>
                    </mxGeometry>
                </mxCell>
                <mxCell id="118" value="" style="endArrow=none;html=1;rounded=0;entryX=0;entryY=0.5;entryDx=0;entryDy=0;" edge="1" parent="1" target="62">
                    <mxGeometry width="50" height="50" relative="1" as="geometry">
                        <mxPoint x="196" y="946" as="sourcePoint"/>
                        <mxPoint x="500" y="1210" as="targetPoint"/>
                    </mxGeometry>
                </mxCell>
                <mxCell id="119" value="" style="endArrow=none;html=1;rounded=0;entryX=0;entryY=0.5;entryDx=0;entryDy=0;" edge="1" parent="1" target="67">
                    <mxGeometry width="50" height="50" relative="1" as="geometry">
                        <mxPoint x="193" y="947" as="sourcePoint"/>
                        <mxPoint x="523" y="1458" as="targetPoint"/>
                    </mxGeometry>
                </mxCell>
                <mxCell id="120" value="" style="endArrow=none;html=1;rounded=0;entryX=0;entryY=0.5;entryDx=0;entryDy=0;" edge="1" parent="1" target="68">
                    <mxGeometry width="50" height="50" relative="1" as="geometry">
                        <mxPoint x="193" y="948" as="sourcePoint"/>
                        <mxPoint x="520" y="1546" as="targetPoint"/>
                    </mxGeometry>
                </mxCell>
                <mxCell id="121" value="" style="endArrow=none;html=1;rounded=0;entryX=0;entryY=0.5;entryDx=0;entryDy=0;" edge="1" parent="1" target="77">
                    <mxGeometry width="50" height="50" relative="1" as="geometry">
                        <mxPoint x="192" y="947" as="sourcePoint"/>
                        <mxPoint x="520" y="1609" as="targetPoint"/>
                    </mxGeometry>
                </mxCell>
                <mxCell id="122" value="" style="endArrow=none;html=1;rounded=0;entryX=0;entryY=0.5;entryDx=0;entryDy=0;" edge="1" parent="1" target="7">
                    <mxGeometry width="50" height="50" relative="1" as="geometry">
                        <mxPoint x="178" y="255" as="sourcePoint"/>
                        <mxPoint x="254" y="233" as="targetPoint"/>
                    </mxGeometry>
                </mxCell>
                <mxCell id="123" value="" style="endArrow=none;html=1;rounded=0;entryX=0;entryY=0.5;entryDx=0;entryDy=0;" edge="1" parent="1" target="20">
                    <mxGeometry width="50" height="50" relative="1" as="geometry">
                        <mxPoint x="177" y="256" as="sourcePoint"/>
                        <mxPoint x="400" y="225" as="targetPoint"/>
                    </mxGeometry>
                </mxCell>
                <mxCell id="124" value="" style="endArrow=none;html=1;rounded=0;entryX=0;entryY=0.5;entryDx=0;entryDy=0;" edge="1" parent="1" target="27">
                    <mxGeometry width="50" height="50" relative="1" as="geometry">
                        <mxPoint x="179" y="256" as="sourcePoint"/>
                        <mxPoint x="460" y="326" as="targetPoint"/>
                    </mxGeometry>
                </mxCell>
                <mxCell id="125" value="" style="endArrow=none;html=1;rounded=0;entryX=0;entryY=0.5;entryDx=0;entryDy=0;" edge="1" parent="1" target="32">
                    <mxGeometry width="50" height="50" relative="1" as="geometry">
                        <mxPoint x="176" y="252" as="sourcePoint"/>
                        <mxPoint x="464" y="470" as="targetPoint"/>
                    </mxGeometry>
                </mxCell>
                <mxCell id="126" value="" style="endArrow=none;html=1;rounded=0;entryX=0;entryY=0.5;entryDx=0;entryDy=0;" edge="1" parent="1" target="37">
                    <mxGeometry width="50" height="50" relative="1" as="geometry">
                        <mxPoint x="179" y="255" as="sourcePoint"/>
                        <mxPoint x="432" y="605" as="targetPoint"/>
                    </mxGeometry>
                </mxCell>
                <mxCell id="127" value="" style="endArrow=none;html=1;rounded=0;entryX=0;entryY=0.5;entryDx=0;entryDy=0;" edge="1" parent="1" target="86">
                    <mxGeometry width="50" height="50" relative="1" as="geometry">
                        <mxPoint x="178" y="257" as="sourcePoint"/>
                        <mxPoint x="450" y="704" as="targetPoint"/>
                    </mxGeometry>
                </mxCell>
                <mxCell id="128" value="donner avis" style="ellipse;whiteSpace=wrap;html=1;fillColor=#e1d5e7;strokeColor=#9673a6;" vertex="1" parent="1">
                    <mxGeometry x="324" y="2276" width="140" height="40" as="geometry"/>
                </mxCell>
                <mxCell id="129" value="" style="endArrow=none;html=1;rounded=0;entryX=0;entryY=0.5;entryDx=0;entryDy=0;" edge="1" parent="1" target="102">
                    <mxGeometry width="50" height="50" relative="1" as="geometry">
                        <mxPoint x="202" y="2202" as="sourcePoint"/>
                        <mxPoint x="383" y="2246" as="targetPoint"/>
                    </mxGeometry>
                </mxCell>
                <mxCell id="130" value="" style="endArrow=none;html=1;rounded=0;entryX=0.031;entryY=0.547;entryDx=0;entryDy=0;entryPerimeter=0;" edge="1" parent="1" target="128">
                    <mxGeometry width="50" height="50" relative="1" as="geometry">
                        <mxPoint x="202" y="2204" as="sourcePoint"/>
                        <mxPoint x="338" y="2258" as="targetPoint"/>
                    </mxGeometry>
                </mxCell>
                <mxCell id="131" value="Voir les annonce" style="ellipse;whiteSpace=wrap;html=1;fillColor=#e1d5e7;strokeColor=#9673a6;" vertex="1" parent="1">
                    <mxGeometry x="332" y="2650" width="140" height="40" as="geometry"/>
                </mxCell>
                <mxCell id="132" value="" style="endArrow=block;endSize=16;endFill=0;html=1;rounded=0;" edge="1" parent="1">
                    <mxGeometry width="160" relative="1" as="geometry">
                        <mxPoint x="139.09" y="2491" as="sourcePoint"/>
                        <mxPoint x="139.09" y="2579" as="targetPoint"/>
                    </mxGeometry>
                </mxCell>
                <mxCell id="133" value="" style="endArrow=none;html=1;rounded=0;entryX=0;entryY=0.632;entryDx=0;entryDy=0;entryPerimeter=0;" edge="1" parent="1" target="105">
                    <mxGeometry width="50" height="50" relative="1" as="geometry">
                        <mxPoint x="198" y="2628" as="sourcePoint"/>
                        <mxPoint x="450" y="2602" as="targetPoint"/>
                    </mxGeometry>
                </mxCell>
                <mxCell id="134" value="" style="endArrow=none;html=1;rounded=0;entryX=0.051;entryY=0.703;entryDx=0;entryDy=0;entryPerimeter=0;" edge="1" parent="1" target="131">
                    <mxGeometry width="50" height="50" relative="1" as="geometry">
                        <mxPoint x="197" y="2628" as="sourcePoint"/>
                        <mxPoint x="336" y="2619" as="targetPoint"/>
                    </mxGeometry>
                </mxCell>
                <mxCell id="135" value="" style="endArrow=none;html=1;rounded=0;" edge="1" parent="1" target="103">
                    <mxGeometry width="50" height="50" relative="1" as="geometry">
                        <mxPoint x="200" y="2425" as="sourcePoint"/>
                        <mxPoint x="475" y="2384" as="targetPoint"/>
                    </mxGeometry>
                </mxCell>
                <mxCell id="136" value="" style="endArrow=none;html=1;rounded=0;" edge="1" parent="1" target="104">
                    <mxGeometry width="50" height="50" relative="1" as="geometry">
                        <mxPoint x="199" y="2426" as="sourcePoint"/>
                        <mxPoint x="331" y="2411" as="targetPoint"/>
                    </mxGeometry>
                </mxCell>
                <mxCell id="137" value="&amp;lt;&amp;lt;include&amp;gt;&amp;gt;" style="endArrow=open;endSize=12;dashed=1;html=1;rounded=0;exitX=0.966;exitY=0.706;exitDx=0;exitDy=0;exitPerimeter=0;" edge="1" parent="1">
                    <mxGeometry x="0.2591" width="160" relative="1" as="geometry">
                        <mxPoint x="650" y="1839" as="sourcePoint"/>
                        <mxPoint x="1271" y="425" as="targetPoint"/>
                        <mxPoint x="1" as="offset"/>
                        <Array as="points">
                            <mxPoint x="739" y="1900"/>
                            <mxPoint x="855" y="1920"/>
                            <mxPoint x="960" y="1883"/>
                            <mxPoint x="1278" y="1737"/>
                            <mxPoint x="1380" y="1383"/>
                            <mxPoint x="1680" y="837"/>
                            <mxPoint x="1606" y="644"/>
                        </Array>
                    </mxGeometry>
                </mxCell>
                <mxCell id="138" value="&amp;lt;&amp;lt;include&amp;gt;&amp;gt;" style="endArrow=open;endSize=12;dashed=1;html=1;rounded=0;exitX=0.966;exitY=0.706;exitDx=0;exitDy=0;exitPerimeter=0;" edge="1" parent="1">
                    <mxGeometry x="0.2591" width="160" relative="1" as="geometry">
                        <mxPoint x="710" y="1923" as="sourcePoint"/>
                        <mxPoint x="1276" y="418" as="targetPoint"/>
                        <mxPoint x="1" as="offset"/>
                        <Array as="points">
                            <mxPoint x="808" y="1943"/>
                            <mxPoint x="919" y="1930"/>
                            <mxPoint x="1020" y="1967"/>
                            <mxPoint x="1338" y="1821"/>
                            <mxPoint x="1440" y="1467"/>
                            <mxPoint x="1740" y="921"/>
                            <mxPoint x="1673" y="620"/>
                        </Array>
                    </mxGeometry>
                </mxCell>
                <mxCell id="139" value="&amp;lt;&amp;lt;include&amp;gt;&amp;gt;" style="endArrow=open;endSize=12;dashed=1;html=1;rounded=0;exitX=0.966;exitY=0.706;exitDx=0;exitDy=0;exitPerimeter=0;" edge="1" parent="1">
                    <mxGeometry x="0.2591" width="160" relative="1" as="geometry">
                        <mxPoint x="653" y="2040" as="sourcePoint"/>
                        <mxPoint x="1281" y="414" as="targetPoint"/>
                        <mxPoint x="1" as="offset"/>
                        <Array as="points">
                            <mxPoint x="725" y="2113"/>
                            <mxPoint x="808" y="2122"/>
                            <mxPoint x="921" y="2154"/>
                            <mxPoint x="1063" y="2105"/>
                            <mxPoint x="1281" y="1938"/>
                            <mxPoint x="1669" y="1540"/>
                            <mxPoint x="1847" y="535"/>
                            <mxPoint x="1636" y="463"/>
                        </Array>
                    </mxGeometry>
                </mxCell>
                <mxCell id="140" value="&amp;lt;&amp;lt;include&amp;gt;&amp;gt;" style="endArrow=open;endSize=12;dashed=1;html=1;rounded=0;exitX=0.966;exitY=0.706;exitDx=0;exitDy=0;exitPerimeter=0;entryX=0.5;entryY=0;entryDx=0;entryDy=0;" edge="1" parent="1" target="24">
                    <mxGeometry x="0.2591" width="160" relative="1" as="geometry">
                        <mxPoint x="594" y="2141" as="sourcePoint"/>
                        <mxPoint x="1222" y="515" as="targetPoint"/>
                        <mxPoint x="1" as="offset"/>
                        <Array as="points">
                            <mxPoint x="666" y="2214"/>
                            <mxPoint x="749" y="2223"/>
                            <mxPoint x="862" y="2255"/>
                            <mxPoint x="1004" y="2206"/>
                            <mxPoint x="1222" y="2039"/>
                            <mxPoint x="1971" y="1403"/>
                            <mxPoint x="2054" y="773"/>
                            <mxPoint x="1855" y="380"/>
                            <mxPoint x="1349" y="359"/>
                        </Array>
                    </mxGeometry>
                </mxCell>
                <mxCell id="141" value="&amp;lt;&amp;lt;include&amp;gt;&amp;gt;" style="endArrow=open;endSize=12;dashed=1;html=1;rounded=0;exitX=0.966;exitY=0.706;exitDx=0;exitDy=0;exitPerimeter=0;" edge="1" parent="1">
                    <mxGeometry x="0.2591" width="160" relative="1" as="geometry">
                        <mxPoint x="440" y="2201" as="sourcePoint"/>
                        <mxPoint x="1193" y="386" as="targetPoint"/>
                        <mxPoint x="1" as="offset"/>
                        <Array as="points">
                            <mxPoint x="512" y="2274"/>
                            <mxPoint x="595" y="2283"/>
                            <mxPoint x="708" y="2315"/>
                            <mxPoint x="850" y="2266"/>
                            <mxPoint x="1227" y="2201"/>
                            <mxPoint x="1770" y="1793"/>
                            <mxPoint x="2110" y="1445"/>
                            <mxPoint x="2183" y="730"/>
                            <mxPoint x="1960" y="351"/>
                            <mxPoint x="1592" y="291"/>
                            <mxPoint x="1207" y="386"/>
                        </Array>
                    </mxGeometry>
                </mxCell>
                <mxCell id="142" value="&amp;lt;&amp;lt;include&amp;gt;&amp;gt;" style="endArrow=open;endSize=12;dashed=1;html=1;rounded=0;exitX=0.966;exitY=0.706;exitDx=0;exitDy=0;exitPerimeter=0;" edge="1" parent="1">
                    <mxGeometry x="0.2591" width="160" relative="1" as="geometry">
                        <mxPoint x="426" y="2460" as="sourcePoint"/>
                        <mxPoint x="1235" y="384" as="targetPoint"/>
                        <mxPoint x="1" as="offset"/>
                        <Array as="points">
                            <mxPoint x="498" y="2533"/>
                            <mxPoint x="581" y="2542"/>
                            <mxPoint x="694" y="2574"/>
                            <mxPoint x="836" y="2525"/>
                            <mxPoint x="1213" y="2460"/>
                            <mxPoint x="1756" y="2052"/>
                            <mxPoint x="2096" y="1704"/>
                            <mxPoint x="2331" y="1236"/>
                            <mxPoint x="2331" y="813"/>
                            <mxPoint x="2224" y="392"/>
                            <mxPoint x="1833" y="201"/>
                            <mxPoint x="1428" y="252"/>
                        </Array>
                    </mxGeometry>
                </mxCell>
                <mxCell id="143" value="&amp;lt;&amp;lt;include&amp;gt;&amp;gt;" style="endArrow=open;endSize=12;dashed=1;html=1;rounded=0;exitX=0.966;exitY=0.706;exitDx=0;exitDy=0;exitPerimeter=0;entryX=1;entryY=0;entryDx=0;entryDy=0;" edge="1" parent="1" target="24">
                    <mxGeometry x="0.2591" width="160" relative="1" as="geometry">
                        <mxPoint x="450" y="2310" as="sourcePoint"/>
                        <mxPoint x="1203" y="495" as="targetPoint"/>
                        <mxPoint x="1" as="offset"/>
                        <Array as="points">
                            <mxPoint x="522" y="2383"/>
                            <mxPoint x="605" y="2392"/>
                            <mxPoint x="718" y="2424"/>
                            <mxPoint x="860" y="2375"/>
                            <mxPoint x="1237" y="2310"/>
                            <mxPoint x="1780" y="1902"/>
                            <mxPoint x="2161" y="1516"/>
                            <mxPoint x="2246" y="1164"/>
                            <mxPoint x="2246" y="730"/>
                            <mxPoint x="2072" y="362"/>
                            <mxPoint x="1602" y="266"/>
                            <mxPoint x="1274" y="398"/>
                            <mxPoint x="1247" y="398"/>
                        </Array>
                    </mxGeometry>
                </mxCell>
                <mxCell id="144" value="&amp;lt;&amp;lt;include&amp;gt;&amp;gt;" style="endArrow=open;endSize=12;dashed=1;html=1;rounded=0;exitX=0.966;exitY=0.706;exitDx=0;exitDy=0;exitPerimeter=0;" edge="1" parent="1">
                    <mxGeometry x="0.2591" width="160" relative="1" as="geometry">
                        <mxPoint x="457" y="2604" as="sourcePoint"/>
                        <mxPoint x="1191" y="387" as="targetPoint"/>
                        <mxPoint x="1" as="offset"/>
                        <Array as="points">
                            <mxPoint x="529" y="2677"/>
                            <mxPoint x="612" y="2686"/>
                            <mxPoint x="725" y="2718"/>
                            <mxPoint x="867" y="2669"/>
                            <mxPoint x="1244" y="2604"/>
                            <mxPoint x="1787" y="2196"/>
                            <mxPoint x="2127" y="1848"/>
                            <mxPoint x="2362" y="1380"/>
                            <mxPoint x="2362" y="957"/>
                            <mxPoint x="2277" y="339"/>
                            <mxPoint x="1765" y="172"/>
                            <mxPoint x="1381" y="246"/>
                        </Array>
                    </mxGeometry>
                </mxCell>
                <mxCell id="145" value="&amp;lt;&amp;lt;include&amp;gt;&amp;gt;" style="endArrow=open;endSize=12;dashed=1;html=1;rounded=0;exitX=0.966;exitY=0.706;exitDx=0;exitDy=0;exitPerimeter=0;entryX=0.319;entryY=0.094;entryDx=0;entryDy=0;entryPerimeter=0;" edge="1" parent="1" target="24">
                    <mxGeometry x="0.2591" width="160" relative="1" as="geometry">
                        <mxPoint x="464" y="2679" as="sourcePoint"/>
                        <mxPoint x="1198" y="462" as="targetPoint"/>
                        <mxPoint x="1" as="offset"/>
                        <Array as="points">
                            <mxPoint x="536" y="2752"/>
                            <mxPoint x="619" y="2761"/>
                            <mxPoint x="874" y="2744"/>
                            <mxPoint x="1251" y="2679"/>
                            <mxPoint x="1794" y="2271"/>
                            <mxPoint x="2134" y="1923"/>
                            <mxPoint x="2369" y="1455"/>
                            <mxPoint x="2403" y="609"/>
                            <mxPoint x="2320" y="247"/>
                            <mxPoint x="1526" y="141"/>
                            <mxPoint x="1238" y="265"/>
                        </Array>
                    </mxGeometry>
                </mxCell>
            </root>
        </mxGraphModel>
    </diagram>
</mxfile>